<?xml version="1.0" standalone="no"?>
<!DOCTYPE svg PUBLIC "-//W3C//DTD SVG 20010904//EN"
 "http://www.w3.org/TR/2001/REC-SVG-20010904/DTD/svg10.dtd">
<svg version="1.0" xmlns="http://www.w3.org/2000/svg"
 width="560.000000pt" height="560.000000pt" viewBox="0 0 560.000000 560.000000"
 preserveAspectRatio="xMidYMid meet">
<metadata>
Created by potrace 1.11, written by Peter Selinger 2001-2013
</metadata>
<g transform="translate(0.000000,560.000000) scale(0.100000,-0.100000)"
fill="#000000" stroke="none">
<path d="M2432 5580 c-11 -11 -24 -37 -29 -57 -4 -21 -8 -41 -9 -45 -1 -5 -2
-24 -3 -43 l-1 -35 -44 6 c-42 6 -47 4 -94 -40 l-49 -46 3 77 c3 79 -11 143
-33 150 -6 3 -21 -5 -32 -16 -16 -16 -18 -26 -11 -51 11 -40 5 -72 -29 -145
-55 -117 -80 -128 -124 -58 -31 49 -40 91 -39 180 2 83 -12 104 -53 85 -44
-20 -48 -49 -29 -197 4 -33 8 -82 8 -110 1 -44 -1 -50 -19 -47 -23 3 -39 -19
-54 -76 -8 -28 -24 -50 -52 -73 -22 -17 -42 -30 -44 -28 -2 2 7 33 19 69 25
73 24 100 -5 100 -29 0 -64 -43 -99 -119 -43 -93 -45 -96 -68 -99 -12 -2 -50
11 -86 27 -60 29 -66 35 -81 81 -17 53 -44 71 -71 49 -22 -18 -12 -73 31 -170
18 -42 37 -92 40 -111 9 -49 13 -148 6 -148 -19 1 -43 33 -58 76 -19 60 -30
74 -54 74 -25 0 -39 -30 -39 -85 0 -45 22 -100 63 -159 23 -32 26 -89 8 -154
-11 -38 -14 -42 -34 -35 -12 4 -56 8 -97 8 -128 0 -214 -61 -165 -115 23 -26
25 -25 70 10 44 35 82 38 117 10 44 -34 64 -119 25 -104 -16 6 -47 -21 -47
-40 0 -19 -39 -51 -64 -52 -48 -3 -48 -4 -43 -31 4 -22 -6 -39 -62 -102 -263
-299 -447 -655 -536 -1036 -18 -77 -36 -165 -40 -195 -4 -30 -11 -84 -15 -120
-16 -119 -4 -491 19 -625 46 -257 108 -449 221 -680 325 -662 952 -1145 1675
-1289 178 -35 270 -44 480 -44 279 0 486 32 745 118 356 117 649 294 919 555
337 326 577 756 675 1205 44 203 54 306 53 525 0 160 -17 352 -42 470 -89 430
-306 853 -595 1158 -47 50 -82 97 -90 120 -10 32 -16 38 -34 33 -11 -2 -29 1
-39 8 -15 11 -16 20 -9 54 16 69 -26 100 -60 45 -30 -48 -20 -4 18 80 58 127
59 237 3 237 -26 0 -36 -25 -41 -105 -3 -39 -13 -85 -22 -103 -14 -27 -22 -32
-51 -32 -45 0 -46 19 -4 85 41 65 48 86 38 114 -9 23 -23 25 -79 10 -19 -5
-20 32 -4 120 19 101 2 168 -39 157 -19 -5 -19 -1 -13 67 3 40 9 88 12 109 5
30 3 38 -15 47 -45 24 -76 -23 -85 -127 -6 -65 -18 -82 -61 -82 -44 0 -49 17
-29 100 18 73 12 115 -19 134 -13 8 -20 6 -31 -9 -9 -11 -16 -29 -16 -40 -1
-18 -1 -19 -11 -2 -13 23 -52 22 -74 -3 -34 -37 -38 -24 -31 95 6 106 5 116
-14 135 -11 11 -24 20 -29 20 -15 0 -51 -50 -57 -79 -9 -36 -32 -71 -47 -71
-8 0 -18 28 -26 75 -19 107 -18 125 13 148 34 25 34 55 -1 68 -35 13 -81 -5
-89 -35 -3 -12 -3 -54 -1 -93 3 -38 1 -76 -4 -84 -5 -8 -9 -9 -10 -4 -5 49 -8
60 -24 71 -11 8 -34 14 -53 14 l-34 0 6 60 c7 67 1 106 -20 114 -24 9 -64 -36
-75 -83 -10 -47 -71 -141 -78 -120 -6 19 19 115 45 175 28 63 30 87 9 104 -22
18 -44 6 -121 -68 -71 -69 -167 -127 -201 -120 -11 2 -20 15 -23 33 -4 23 -12
31 -38 39 -20 5 -32 15 -32 26 0 10 -7 23 -16 31 -22 18 -46 1 -62 -47 -22
-69 -35 -71 -128 -27 l-52 24 14 46 c17 56 5 88 -29 77 -31 -9 -45 -29 -64
-94 -15 -50 -43 -90 -63 -90 -17 0 1 93 26 135 14 25 23 52 20 60 -8 22 -58
18 -84 -5z m1455 -582 c-3 -7 -5 -2 -5 12 0 14 2 19 5 13 2 -7 2 -19 0 -25z"/>
</g>
</svg>
